{"title":"George Washington 2000 BRRip XviD titler","uid":9668310,"size":855376502,"categoryP":"video","categoryS":"movies","magnet":"?xt=urn:btih:18314adc16a23bc4e9c2d5c6712f14f5b86226b7&amp;dn=George+Washington+2000+BRRip+XviD+titler&amp;tr=udp%3A%2F%2Ftracker.openbittorrent.com%3A80&amp;tr=udp%3A%2F%2Fopen.demonii.com%3A1337&amp;tr=udp%3A%2F%2Ftracker.coppersurfer.tk%3A6969&amp;tr=udp%3A%2F%2Fexodus.desync.com%3A6969","seeders":1,"leechers":0,"uploader":"movieZ.freak","files":4,"time":1393419695,"description":"SOURCE: George Washington 2000 720p BluRay x264 - HD4U\n\n\n\n &lt;a href=&quot;\nhttp://www.imdb.com/title/tt0262432/&quot; rel=&quot;nofollow&quot; target=&quot;_NEW&quot;&gt;\nhttp://www.imdb.com/title/tt0262432/&lt;/a&gt;\n\n\n &lt;a href=&quot;\nhttp://www.rottentomatoes.com/m/1097991-george_washington/&quot; rel=&quot;nofollow&quot; target=&quot;_NEW&quot;&gt;\nhttp://www.rottentomatoes.com/m/1097991-george_washington/&lt;/a&gt;\n\n\n &lt;a href=&quot;\nhttp://en.wikipedia.org/wiki/George_Washington_%28film%29&quot; rel=&quot;nofollow&quot; target=&quot;_NEW&quot;&gt;\nhttp://en.wikipedia.org/wiki/George_Washington_%28film%29&lt;/a&gt;\n\n\n\n\n- SAMPLE: Yes\n\n\n- SUBTITLE: English\n\n\n- LANGUAGE / AUDIO: English\n\n\n\n\nSCREENSHOTS:\n-------------------    &lt;a href=&quot;\nhttp://someimage.com/oygE&quot; rel=&quot;nofollow&quot; target=&quot;_NEW&quot;&gt;\nhttp://someimage.com/oygE&lt;/a&gt;\n\n\n\n\nDIRECTOR: David Gordon Green\n &lt;a href=&quot;\nhttp://www.imdb.com/name/nm0337773/&quot; rel=&quot;nofollow&quot; target=&quot;_NEW&quot;&gt;\nhttp://www.imdb.com/name/nm0337773/&lt;/a&gt;\n\n\n\n\nCAST: Donald Holden, Candace Evanofski, Paul Schneider, Rachael Handy, Eddie Rouse, Damian Jewan Lee, Curtis Cotton III,...\n\n\nPLOT:\n-----------\nSet in a small town in North Carolina, George Washington is the story of a tight-knit multi-racial group of working-class kids caught in a tragic lie. After\na twelve-year-old girl breaks up with her boyfriend for a sensitive, deeply introspective thirteen-year-old boy named George, a bizarre series of events and an innocent cover-up launches their insular group on individual quests for redemption. David Gordon directs this bleak drama about a gang of rural teens going astray. The title character is 13-year-old boy who lives in an impoverished corner of North Carolina. While wandering around with his rag-tag band of mates, one boy gets inadvertently killed. Fearing parental retribution, the gang hides the body. Later, matters comes to a head when guilt and anxiety starts to take its toll.\n\n\n************************************\n\n- Duration: 1h 30mn\n\n- Bit rate: 1112 Kbps\n\n- Res: 720 x 302\n\n- AR: 2.40:1\n\n- FPS: 23.976\n\n- Audio: AC3, 2 channels, 128Kbps\n\n************************************\n\n\nGeneral\n-------------\nFormat : AVI\nFormat/Info : Audio Video Interleave\nFile size : 807 MiB\nDuration : 1h 30mn\nOverall bit rate : 1250 Kbps\nWriting library : VirtualDub build 35491\n\n\nVideo\n------------\nFormat : MPEG-4 Visual\nFormat profile : Advanced Simple@L5\nFormat settings, BVOP : 2\nFormat settings, QPel : No\nFormat settings, GMC : No warppoints\nFormat settings, Matrix : Default (H.263)\nCodec ID : XVID\nCodec ID/Hint : XviD\nDuration : 1h 30mn\nBit rate : 1112 Kbps\nWidth : 720 pixels\nHeight : 302 pixels\nDisplay aspect ratio : 2.40:1\nFrame rate : 23.976 fps\nColor space : YUV\nChroma subsampling : 4:2:0\nBit depth : 8 bits\nScan type : Progressive\nCompression mode : Lossy\nBits/(Pixel*Frame) : 0.213\nStream size : 718 MiB (89%)\nWriting library : XviD 65\n\n\nAudio\n------------\nFormat : AC-3\nFormat/Info : Audio Coding 3\nMode extension : CM (complete main)\nFormat settings, Endianness : Big\nCodec ID : 2000\nDuration : 1h 30mn\nBit rate mode : Constant\nBit rate : 128 Kbps\nChannel(s) : 2 channels\nChannel positions : Front: L R\nSampling rate : 48.0 KHz\nBit depth : 16 bits\nCompression mode : Lossy\nStream size : 82.7 MiB (10%)\nAlignment : Aligned on interleaves\nInterleave, duration : 42 ms (1.00 video frame)\nInterleave, preload duration : 512 ms","torrent":{"xt":"urn:btih:18314adc16a23bc4e9c2d5c6712f14f5b86226b7","amp;dn":"George+Washington+2000+BRRip+XviD+titler","amp;tr":["udp%3A%2F%2Ftracker.openbittorrent.com%3A80","udp%3A%2F%2Fopen.demonii.com%3A1337","udp%3A%2F%2Ftracker.coppersurfer.tk%3A6969","udp%3A%2F%2Fexodus.desync.com%3A6969"],"infoHash":"18314adc16a23bc4e9c2d5c6712f14f5b86226b7","infoHashBuffer":{"type":"Buffer","data":[24,49,74,220,22,162,59,196,233,194,213,198,113,47,20,245,184,98,38,183]},"announce":[],"urlList":[]}}